#!OML:ASF I:\Actors\actors\Patient Classification 2\Patient 1\Session 1\actor1.ASF
:FULLY-SPECIFIED
:DEGREES
694
root -1.07424 18.5412 5.47808 -2.73335 -19.3247 -6.47578
lowerback 13.8331 -1.81934 1.31354
upperback 3.40459 -2.10208 3.25631
thorax -4.08003 -1.0635 3.03636
lowerneck 8.63656 -18.5136 -19.5501
upperneck 16.3638 -29.6414 18.512
head 9.58241 -14.8583 6.2328
rclavicle 5.45415e-014 1.98785e-016
rhumerus -47.5557 -15.7553 -69.2063
rradius 49.5623
rwrist 16.6961
rhand -9.48536 -22.5395
rfingers 7.12502
rthumb 16.4792 -51.8597
lclavicle 5.45415e-014 1.98785e-016
lhumerus -32.6258 1.01037 84.6307
lradius 43.0575
lwrist -9.67173
lhand -0.819535 -21.6949
lfingers 7.12502
lthumb 24.8052 6.71628
rfemur 9.85276 21.1613 23.2857
rtibia 2.3059e-014
rfoot -17.7215 -10.273
rtoes -10.4794
lfemur 0.835964 4.51484 -6.45676
ltibia 26.8946
lfoot -24.6313 15.9907
ltoes -56.0379
695
root -1.03776 18.5374 5.49686 -2.82606 -19.8254 -6.38338
lowerback 13.9511 -1.97199 1.16693
upperback 3.32411 -2.31862 3.25918
thorax -4.21394 -1.16851 3.16705
lowerneck 8.51378 -18.4733 -19.6932
upperneck 16.4562 -29.6195 18.532
head 9.65764 -14.8461 6.24315
rclavicle 6.60959e-015 2.38542e-015
rhumerus -48.1196 -15.7995 -68.966
rradius 49.7185
rwrist 16.5393
rhand -9.54644 -22.6506
rfingers 7.12502
rthumb 16.4204 -51.9756
lclavicle 6.60959e-015 2.38542e-015
lhumerus -31.6594 0.325517 85.1207
lradius 43.4766
lwrist -8.98503
lhand -2.49238 -22.507
lfingers 7.12502
lthumb 23.2011 6.11555
rfemur 9.92904 21.6782 23.1422
rtibia 1.82882e-014
rfoot -17.7792 -10.3942
rtoes -10.9209
lfemur 1.12232 4.79843 -6.66668
ltibia 26.8572
lfoot -24.8299 16.0695
ltoes -55.9594
696
root -1.01401 18.5306 5.52124 -2.96223 -19.8364 -6.35155
lowerback 13.8859 -2.26635 0.994614
upperback 3.33274 -2.73401 3.30035
thorax -4.14048 -1.37377 3.37519
lowerneck 8.329 -18.4216 -19.6714
upperneck 16.458 -29.528 18.5099
head 9.66129 -14.7923 6.2329
rclavicle 1.80894e-014 1.41137e-014
rhumerus -48.551 -15.8992 -68.7236
rradius 49.8294
rwrist 16.5677
rhand -9.3384 -22.4985
rfingers 7.12502
rthumb 16.6207 -51.8068
lclavicle 1.80894e-014 1.41137e-014
lhumerus -30.6897 -0.272241 85.5896
lradius 43.9528
lwrist -8.45438
lhand -4.08005 -23.228
lfingers 7.12502
lthumb 21.6771 5.57841
rfemur 10.2004 21.6872 23.1446
rtibia 9.54166e-015
rfoot -17.9092 -10.446
rtoes -11.3502
lfemur 1.36075 4.93232 -6.70536
ltibia 26.8233
lfoot -24.8507 15.8782
ltoes -55.9432
697
root -0.978624 18.5274 5.5402 -3.02974 -20.235 -6.26031
lowerback 13.8606 -2.42178 0.868353
upperback 3.30908 -2.95898 3.29084
thorax -4.1346 -1.48445 3.47397
lowerneck 8.12806 -18.3537 -19.5143
upperneck 16.3901 -29.3714 18.4292
head 9.59632 -14.7042 6.20362
rclavicle 4.18193e-014 -2.24627e-014
rhumerus -48.8587 -16.1191 -68.4738
rradius 49.7986
rwrist 16.7468
rhand -9.02397 -22.4059
rfingers 7.12502
rthumb 16.9234 -51.6886
lclavicle 4.18193e-014 -2.24627e-014
lhumerus -29.7912 -0.934796 86.0842
lradius 44.5229
lwrist -7.84169
lhand -2.6077 -22.696
lfingers 7.12502
lthumb 23.0904 5.94044
rfemur 10.2564 22.1038 22.9925
rtibia 2.46493e-014
rfoot -17.9221 -10.5052
rtoes -11.2185
lfemur 1.57241 5.22365 -6.89861
ltibia 26.7995
lfoot -25.0173 15.8819
ltoes -55.8198
698
root -0.939198 18.5265 5.55658 -3.06921 -20.7189 -6.16086
lowerback 13.8792 -2.54015 0.784408
upperback 3.26706 -3.12799 3.25607
thorax -4.17771 -1.56697 3.51588
lowerneck 7.80425 -18.2598 -19.2479
upperneck 16.3807 -29.1444 18.2626
head 9.52572 -14.5715 6.13651
rclavicle 6.76365e-014 3.97569e-016
rhumerus -49.1861 -16.3165 -68.2814
rradius 49.8797
rwrist 16.8418
rhand -8.69898 -22.4175
rfingers 7.12502
rthumb 17.2362 -51.6731
lclavicle 6.76365e-014 3.97569e-016
lhumerus -28.8446 -1.57847 86.5651
lradius 45.0249
lwrist -7.15574
lhand -3.0508 -22.9789
lfingers 7.12502
lthumb 22.6652 5.7102
rfemur 10.2302 22.6118 22.7962
rtibia 7.15625e-015
rfoot -17.8913 -10.6095
rtoes -11.4249
lfemur 1.75381 5.5361 -7.13466
ltibia 26.7816
lfoot -25.1921 15.9475
ltoes -55.7041
699
root -0.901794 18.5256 5.57313 -3.1331 -21.0969 -6.07403
lowerback 13.9788 -2.73389 0.632297
upperback 3.122 -3.39665 3.30977
thorax -4.35828 -1.6955 3.71614
lowerneck 7.59785 -17.9844 -19.2151
upperneck 16.4169 -28.6911 18.0677
head 9.43682 -14.3544 6.14538
rclavicle -9.19379e-016 1.5704e-014
rhumerus -49.523 -16.2386 -67.9757
rradius 49.7922
rwrist 17.0162
rhand -8.42682 -22.1323
rfingers 7.12502
rthumb 17.4981 -51.3647
lclavicle -9.19379e-016 1.5704e-014
lhumerus -27.9267 -2.03503 87.1294
lradius 45.0713
lwrist -6.37766
lhand -3.72075 -23.4279
lfingers 7.12502
lthumb 22.0221 5.33831
rfemur 10.2615 23.0095 22.637
rtibia 4.77083e-015
rfoot -17.9172 -10.7671
rtoes -11.9476
lfemur 1.93361 5.81731 -7.33168
ltibia 26.7634
lfoot -25.3 15.9552
ltoes -55.657
700
root -0.866133 18.5237 5.58974 -3.24015 -21.4789 -6.00395
lowerback 14.1275 -2.87613 0.500541
upperback 2.98728 -3.5947 3.34118
thorax -4.55977 -1.78836 3.87339
lowerneck 7.25736 -17.6622 -18.9387
upperneck 16.4081 -28.1284 17.8681
head 9.29497 -14.0666 6.13477
rclavicle -2.58172e-014 -1.98785e-015
rhumerus -49.8602 -16.3663 -67.636
rradius 49.6857
rwrist 17.3514
rhand -8.09078 -22.102
rfingers 7.12502
rthumb 17.8215 -51.3054
lclavicle -2.58172e-014 -1.98785e-015
lhumerus -27.0368 -2.53368 87.7102
lradius 45.0754
lwrist -5.69027
lhand -4.35782 -23.9355
lfingers 7.12502
lthumb 21.4103 4.90147
rfemur 10.3655 23.4068 22.5268
rtibia -3.57812e-014
rfoot -18.0105 -10.9052
rtoes -12.0892
lfemur 2.17876 6.12 -7.48934
ltibia 26.7294
lfoot -25.3909 15.9464
ltoes -55.6676
